# xmcd
# Track frame offsets:
# 150
# 10398
# 24047
# 34335
# 46261
# 59608
# 82598
# 89788
# 99881
# 112222
# 134321
# 144785
# 157282
# 170774
# 182511
# 193223
# 202492
# 211259
# 220623
# 234232
# 244528
# 255431
# 264406
# 275273
# 287641
#
# Disc length: 3977 seconds
# Revision: 0
# Processed by: cddbd v1.5.2PL0 Copyright (c) Steve Scherf et al.
# Submitted via: VisiTrax 2.11.3.279 - For more info visit www.synapsa.com
#
DISCID=640f8719
DTITLE=Various (1940s-1960's) Pop and Rock n Roll and Jazz and Blues and R&B and Countr
DTITLE=y: Electric Guitar Artists - Pioneers Of The Electric Guitar - Scorchi
DTITLE=ng Licks, Slide Tricks and Seductive Picks: CD1 of 3: *ReMastered Tracks
DYEAR=2013
DGENRE=Blues
TTITLE0=Dick Dale - Misirlou*
TTITLE1=B.B. King - Three O'Clock Blues*
TTITLE2=Link Wray and His Ray Men - Rumble*
TTITLE3=Johnny 'Guitar' Watson - Space Guitar*
TTITLE4=Lightnin' Slim - Lightnin' Blues*
TTITLE5=Charlie Christian - Waiting For Benny*
TTITLE6=Mickey Hawks and The Night Raiders - Cotton Pickin'*
TTITLE7=Dale Hawkins - Susie Q*
TTITLE8=Elmore James - Dust My Broom*
TTITLE9=Jimmy Raney - On The Rocks*
TTITLE10=Bill Justis - Raunchy*
TTITLE11=Earl Hooker - Blue Guitar*
TTITLE12=Leon McAuliffe - Blue Guitar Stomp*
TTITLE13=Ramrods The - Ghost Riders In The Sky*
TTITLE14=Santo and Johnny - Sleepwalk*
TTITLE15=Les Paul and Mary Ford - Bye Bye Blues*
TTITLE16=Bert Weedon - Big Beat Boogie*
TTITLE17=Ventures The - Walk Don't Run*
TTITLE18=Guitar Slim - The Story Of My Life*
TTITLE19=Chet Atkins - Mister Sandman*
TTITLE20=Virtues The - Guitar Boogie Shuffle*
TTITLE21=John Barry Seven The - The James Bond Theme*
TTITLE22=Eddie Burns - Treat Me Like I Treat You*
TTITLE23=Howlin' Wolf - Spoonful*
TTITLE24=Johnny Kidd and The Pirates - Shakin' All Over*
EXTD=Compilation and ReMastering: Not Now Music: 2013
EXTT0=
EXTT1=
EXTT2=
EXTT3=
EXTT4=
EXTT5=
EXTT6=
EXTT7=
EXTT8=
EXTT9=
EXTT10=
EXTT11=
EXTT12=
EXTT13=
EXTT14=
EXTT15=
EXTT16=
EXTT17=
EXTT18=
EXTT19=
EXTT20=
EXTT21=
EXTT22=
EXTT23=
EXTT24=
PLAYORDER=
